<svg id="visual" viewBox="0 0 1920 1080" width="1920" height="1080" xmlns="http://www.w3.org/2000/svg" xmlns:xlink="http://www.w3.org/1999/xlink" version="1.1"><rect x="0" y="0" width="1920" height="1080" fill="#038373"></rect><defs><linearGradient id="grad1_0" x1="43.8%" y1="0%" x2="100%" y2="100%"><stop offset="14.444444444444446%" stop-color="#038373" stop-opacity="1"></stop><stop offset="85.55555555555554%" stop-color="#038373" stop-opacity="1"></stop></linearGradient></defs><defs><linearGradient id="grad2_0" x1="0%" y1="0%" x2="56.3%" y2="100%"><stop offset="14.444444444444446%" stop-color="#038373" stop-opacity="1"></stop><stop offset="85.55555555555554%" stop-color="#038373" stop-opacity="1"></stop></linearGradient></defs><g transform="translate(1920, 0)"><path d="M0 972C-85.4 964.1 -170.7 956.3 -250.5 935C-330.4 913.8 -404.7 879.1 -486 841.8C-567.3 804.4 -655.6 764.3 -682.4 682.4C-709.1 600.4 -674.4 476.6 -684.2 395C-693.9 313.4 -748.3 274.1 -803.7 215.3C-859 156.5 -915.5 78.3 -972 0L0 0Z" fill="#00CC8E"></path></g><g transform="translate(0, 1080)"><path d="M0 -972C80.3 -945.3 160.7 -918.7 241 -899.3C321.3 -879.9 401.5 -867.7 484.5 -839.2C567.5 -810.7 653.2 -765.9 687.3 -687.3C721.4 -608.7 703.9 -496.2 720.5 -416C737.2 -335.8 787.9 -287.8 835.5 -223.9C883.1 -159.9 927.6 -80 972 0L0 0Z" fill="#00CC8E"></path></g></svg>