<svg id="visual" viewBox="0 0 1920 1080" width="1920" height="1080" xmlns="http://www.w3.org/2000/svg" xmlns:xlink="http://www.w3.org/1999/xlink" version="1.1"><rect x="0" y="0" width="1920" height="1080" fill="#038373"></rect><defs><linearGradient id="grad1_0" x1="43.8%" y1="0%" x2="100%" y2="100%"><stop offset="14.444444444444446%" stop-color="#038373" stop-opacity="1"></stop><stop offset="85.55555555555554%" stop-color="#038373" stop-opacity="1"></stop></linearGradient></defs><defs><linearGradient id="grad2_0" x1="0%" y1="0%" x2="56.3%" y2="100%"><stop offset="14.444444444444446%" stop-color="#038373" stop-opacity="1"></stop><stop offset="85.55555555555554%" stop-color="#038373" stop-opacity="1"></stop></linearGradient></defs><g transform="translate(1920, 0)"><path d="M0 702C-50.5 690.3 -100.9 678.7 -152.9 669.8C-204.8 660.9 -258.3 654.8 -304.6 632.5C-350.9 610.2 -389.9 571.7 -425.8 534C-461.7 496.3 -494.5 459.4 -528.5 421.5C-562.6 383.6 -597.9 344.6 -622.6 299.8C-647.2 255 -661.2 204.5 -672.7 153.5C-684.2 102.6 -693.1 51.3 -702 0L0 0Z" fill="#00CC8E"></path></g><g transform="translate(0, 1080)"><path d="M0 -702C51.1 -692.2 102.2 -682.4 153.3 -671.7C204.4 -661 255.4 -649.3 302 -627.1C348.6 -604.8 390.7 -572 427.7 -536.3C464.7 -500.7 496.6 -462.3 532.4 -424.6C568.2 -386.8 607.9 -349.7 632.5 -304.6C657.1 -259.5 666.6 -206.3 675.6 -154.2C684.7 -102.1 693.3 -51.1 702 0L0 0Z" fill="#00CC8E"></path></g></svg>