<svg id="visual" viewBox="0 0 1920 1080" width="1920" height="1080" xmlns="http://www.w3.org/2000/svg" xmlns:xlink="http://www.w3.org/1999/xlink" version="1.1"><rect x="0" y="0" width="1920" height="1080" fill="#038373"></rect><defs><linearGradient id="grad1_0" x1="43.8%" y1="0%" x2="100%" y2="100%"><stop offset="14.444444444444446%" stop-color="#00cc8e" stop-opacity="1"></stop><stop offset="85.55555555555554%" stop-color="#00cc8e" stop-opacity="1"></stop></linearGradient></defs><defs><linearGradient id="grad1_1" x1="43.8%" y1="0%" x2="100%" y2="100%"><stop offset="14.444444444444446%" stop-color="#00cc8e" stop-opacity="1"></stop><stop offset="85.55555555555554%" stop-color="#038373" stop-opacity="1"></stop></linearGradient></defs><defs><linearGradient id="grad2_0" x1="0%" y1="0%" x2="56.3%" y2="100%"><stop offset="14.444444444444446%" stop-color="#00cc8e" stop-opacity="1"></stop><stop offset="85.55555555555554%" stop-color="#00cc8e" stop-opacity="1"></stop></linearGradient></defs><defs><linearGradient id="grad2_1" x1="0%" y1="0%" x2="56.3%" y2="100%"><stop offset="14.444444444444446%" stop-color="#038373" stop-opacity="1"></stop><stop offset="85.55555555555554%" stop-color="#00cc8e" stop-opacity="1"></stop></linearGradient></defs><g transform="translate(1920, 0)"><path d="M0 702C-52.2 698.4 -104.4 694.9 -156.2 684.4C-208 673.9 -259.4 656.5 -302.9 628.9C-346.3 601.3 -381.8 563.5 -424.6 532.4C-467.4 501.4 -517.5 477 -548.1 437.1C-578.7 397.1 -589.7 341.6 -606.4 292C-623 242.4 -645.1 198.8 -662 151.1C-678.8 103.4 -690.4 51.7 -702 0L0 0Z" fill="#00a784"></path><path d="M0 351C-26.1 349.2 -52.2 347.4 -78.1 342.2C-104 337 -129.7 328.2 -151.4 314.4C-173.1 300.6 -190.9 281.7 -212.3 266.2C-233.7 250.7 -258.7 238.5 -274 218.5C-289.3 198.6 -294.9 170.8 -303.2 146C-311.5 121.2 -322.6 99.4 -331 75.5C-339.4 51.7 -345.2 25.9 -351 0L0 0Z" fill="#00cc8e"></path></g><g transform="translate(0, 1080)"><path d="M0 -702C53.6 -700.9 107.1 -699.7 156.2 -684.4C205.3 -669.1 249.9 -639.6 295.5 -613.6C341 -587.6 387.5 -565.1 424.6 -532.4C461.7 -499.8 489.4 -457 524.6 -418.4C559.8 -379.8 602.3 -345.4 625.3 -301.1C648.2 -256.9 651.5 -202.7 661 -150.9C670.5 -99 686.3 -49.5 702 0L0 0Z" fill="#00a784"></path><path d="M0 -351C26.8 -350.4 53.6 -349.9 78.1 -342.2C102.7 -334.5 125 -319.8 147.7 -306.8C170.5 -293.8 193.7 -282.5 212.3 -266.2C230.9 -249.9 244.7 -228.5 262.3 -209.2C279.9 -189.9 301.2 -172.7 312.6 -150.6C324.1 -128.4 325.7 -101.4 330.5 -75.4C335.3 -49.5 343.1 -24.8 351 0L0 0Z" fill="#00cc8e"></path></g></svg>